<svg width="500" height="500" viewBox="0 0 500 500" fill="none" xmlns="http://www.w3.org/2000/svg">
<rect width="500" height="500" fill=""/>
<g clip-path="url(#clip0_20_112)">
<path d="M370.48 250.12L250.32 42L130.16 250.12L10 458.24H138.34L250.32 264.3L362.28 458.24H490.64L370.48 250.12Z" fill="url(#paint0_linear_20_112)"/>
<path d="M222.96 89.4L10 458.24H138.34L250.32 264.3L362.28 458.24H434.82L222.96 89.4Z" fill="url(#paint1_linear_20_112)"/>
<path d="M242.14 250.12L186.14 153.14L130.16 250.12L10 458.24H121.98H138.34L250.32 264.3L242.14 250.12Z" fill="url(#paint2_linear_20_112)"/>
<path d="M242.14 250.12L218.24 208.72L194.34 250.12L74.18 458.24H121.98H138.34L250.32 264.3L242.14 250.12Z" fill="url(#paint3_linear_20_112)"/>
</g>
<defs>
<linearGradient id="paint0_linear_20_112" x1="52.08" y1="86.24" x2="202.94" y2="369.34" gradientUnits="userSpaceOnUse">
<stop stop-color="#7F2BFF"/>
<stop offset="1" stop-color="#FD71FF"/>
</linearGradient>
<linearGradient id="paint1_linear_20_112" x1="77.44" y1="222.72" x2="249.72" y2="448.26" gradientUnits="userSpaceOnUse">
<stop stop-color="#7F2BFF"/>
<stop offset="1" stop-color="#D230FF"/>
</linearGradient>
<linearGradient id="paint2_linear_20_112" x1="125.64" y1="368.26" x2="241.3" y2="170.6" gradientUnits="userSpaceOnUse">
<stop stop-color="#AE32FF"/>
<stop offset="0.13" stop-color="#A530F6"/>
<stop offset="0.34" stop-color="#8E2BDF"/>
<stop offset="0.6" stop-color="#6824B8"/>
<stop offset="0.9" stop-color="#351A84"/>
<stop offset="1" stop-color="#231772"/>
</linearGradient>
<linearGradient id="paint3_linear_20_112" x1="103.22" y1="461.76" x2="241.24" y2="225.9" gradientUnits="userSpaceOnUse">
<stop stop-color="#AE32FF"/>
<stop offset="0.36" stop-color="#7E28CE"/>
<stop offset="1" stop-color="#231772"/>
</linearGradient>
<clipPath id="clip0_20_112">
<rect width="480.64" height="416.24" fill="white" transform="translate(10 42)"/>
</clipPath>
</defs>
</svg>
